# File created by Blade
# Date/Time:  Wed Jan 21 19:19:27 2015
#---------------------------------------------------------
:version 1.10
:name HOM
:units
  mass 1.0
  length 1.000000
  angle deg
:documentation
     Acclaim Skeleton File
:root
   axis xyz
   order TX TY TZ RX RY RZ
   position 0.000000 0.000000 0.000000
   orientation 0 0 0
:bonedata
   begin
      id 1
      name RightUpLeg_dum
      direction -1.000000 0.000000 0.000000
      length 3.693983
      axis 0.0 0.0 0.0 xyz
   end
   begin
      id 2
      name LeftUpLeg_dum
      direction 1.000000 0.000000 0.000000
      length 3.693983
      axis 0.0 0.0 0.0 xyz
   end
   begin
      id 3
      name Spine_dum
      direction 0.000000 1.000000 0.000000
      length 2.392956
      axis 0.0 0.0 0.0 xyz
   end
   begin
      id 4
      name RightUpLeg
      direction 0.000000 -1.000000 0.000000
      length 15.795667
      axis 0.0 0.0 0.0 xyz
      dof rx ry rz
   end
   begin
      id 5
      name RightLeg
      direction 0.000000 -1.000000 0.000000
      length 14.766989
      axis 0.0 0.0 0.0 xyz
      dof rx ry rz
   end
   begin
      id 6
      name RightFoot
      direction 0.000000 -0.258819 0.965926
      length 4.962790
      axis 15.0 0.0 0.0 xyz
      dof rx ry rz
   end
   begin
      id 7
      name RightToeBase
      direction 0.000000 0.000000 1.000000
      length 2.952750
      axis 0.0 0.0 0.0 xyz
      dof rx ry rz
   end
   begin
      id 8
      name LeftUpLeg
      direction 0.000000 -1.000000 0.000000
      length 15.795667
      axis 0.0 0.0 0.0 xyz
      dof rx ry rz
   end
   begin
      id 9
      name LeftLeg
      direction 0.000000 -1.000000 0.000000
      length 14.766989
      axis 0.0 0.0 0.0 xyz
      dof rx ry rz
   end
   begin
      id 10
      name LeftFoot
      direction 0.000000 -0.258819 0.965926
      length 4.962790
      axis 15.0 0.0 0.0 xyz
      dof rx ry rz
   end
   begin
      id 11
      name LeftToeBase
      direction 0.000000 0.000000 1.000000
      length 2.952750
      axis 0.0 0.0 0.0 xyz
      dof rx ry rz
   end
   begin
      id 12
      name Spine
      direction 0.000000 1.000000 0.000000
      length 0.000000
      axis 0.0 0.0 0.0 xyz
      dof rx ry rz
   end
   begin
      id 13
      name Spine_dum1
      direction 0.000000 1.000000 0.000000
      length 13.207411
      axis 0.0 0.0 0.0 xyz
   end
   begin
      id 14
      name Spine_dum2
      direction 0.000000 1.000000 0.000000
      length 13.207411
      axis 0.0 0.0 0.0 xyz
   end
   begin
      id 15
      name Spine_dum3
      direction 0.000000 1.000000 0.000000
      length 19.250100
      axis 0.0 0.0 0.0 xyz
   end
   begin
      id 16
      name RightShoulder
      direction -1.000000 0.000000 0.000000
      length 8.140465
      axis 0.0 0.0 90.0 xyz
      dof rx ry rz
   end
   begin
      id 17
      name RightArm
      direction -1.000000 0.000000 0.000000
      length 10.649840
      axis 0.0 0.0 90.0 xyz
      dof rx ry rz
   end
   begin
      id 18
      name RightForeArm
      direction -1.000000 0.000000 0.000000
      length 8.304624
      axis 0.0 0.0 90.0 xyz
      dof ry rz rx
   end
   begin
      id 19
      name RightHand
      direction -1.000000 0.000000 0.000000
      length 0.000000
      axis 0.0 0.0 90.0 xyz
      dof rx ry rz
   end
   begin
      id 20
      name RightHand_dum1
      direction -1.000000 0.000000 0.000000
      length 3.937000
      axis 0.0 0.0 90.0 xyz
   end
   begin
      id 21
      name RightHand_dum2
      direction 0.000000 0.000000 0.000000
      length 0.000000
      axis 0.0 0.0 90.0 xyz
   end
   begin
      id 22
      name RightHandThumb1
      direction 0.000000 0.000000 1.000000
      length 3.937000
      axis 0.0 0.0 90.0 xyz
      dof rx rz ry
   end
   begin
      id 23
      name LeftShoulder
      direction 1.000000 0.000000 0.000000
      length 8.140465
      axis 0.0 0.0 -90.0 xyz
      dof rx ry rz
   end
   begin
      id 24
      name LeftArm
      direction 1.000000 0.000000 0.000000
      length 10.649840
      axis 0.0 0.0 -90.0 xyz
      dof rx ry rz
   end
   begin
      id 25
      name LeftForeArm
      direction 1.000000 0.000000 0.000000
      length 8.304624
      axis 0.0 0.0 -90.0 xyz
      dof ry rz rx
   end
   begin
      id 26
      name LeftHand
      direction 1.000000 0.000000 0.000000
      length 0.000000
      axis 0.0 0.0 -90.0 xyz
      dof rx ry rz
   end
   begin
      id 27
      name LeftHand_dum1
      direction 1.000000 0.000000 0.000000
      length 3.937000
      axis 0.0 0.0 -90.0 xyz
   end
   begin
      id 28
      name LeftHand_dum2
      direction 0.000000 0.000000 0.000000
      length 0.000000
      axis 0.0 0.0 -90.0 xyz
   end
   begin
      id 29
      name LeftHandThumb1
      direction 0.000000 0.000000 1.000000
      length 3.937000
      axis 0.0 0.0 -90.0 xyz
      dof rx rz ry
   end
   begin
      id 30
      name Head
      direction 0.000000 1.000000 0.000000
      length 4.527550
      axis 0.0 0.0 0.0 xyz
      dof rx ry rz
   end
:hierarchy
   begin
      root RightUpLeg_dum LeftUpLeg_dum Spine_dum
      RightUpLeg_dum RightUpLeg
      LeftUpLeg_dum LeftUpLeg
      Spine_dum Spine
      RightUpLeg RightLeg
      RightLeg RightFoot
      RightFoot RightToeBase
      LeftUpLeg LeftLeg
      LeftLeg LeftFoot
      LeftFoot LeftToeBase
      Spine Spine_dum1 Spine_dum2 Spine_dum3
      Spine_dum1 RightShoulder
      Spine_dum2 LeftShoulder
      Spine_dum3 Head
      RightShoulder RightArm
      RightArm RightForeArm
      RightForeArm RightHand
      RightHand RightHand_dum1 RightHand_dum2
      RightHand_dum2 RightHandThumb1
      LeftShoulder LeftArm
      LeftArm LeftForeArm
      LeftForeArm LeftHand
      LeftHand LeftHand_dum1 LeftHand_dum2
      LeftHand_dum2 LeftHandThumb1
   end

# File created by Blade
# Date/Time:  Wed Jan 21 19:19:18 2015
# Frame Rate: 120.000 fps
#------------------------------------------------------
:FULLY-SPECIFIED
:DEGREES
733
root -1.478130 13.810154 -3.269691 58.751679 -45.316773 15.169782
RightUpLeg -183.385258 -15.829500 36.078297
RightLeg 102.639638 -0.000000 -0.000000
RightFoot 0.426359 23.007536 22.397413
RightToeBase 27.753188 -0.000000 -0.000000
LeftUpLeg -23.838206 27.298829 19.889701
LeftLeg 17.710403 -0.000000 -0.000000
LeftFoot -36.882504 32.896452 -16.208108
LeftToeBase 12.950235 -0.000000 -0.000000
Spine -30.971776 14.650294 23.547147
RightShoulder -8.530658 28.229492 -27.234812
RightArm 6.532566 -51.877248 59.497896
RightForeArm -3.971753 -0.000000 23.739635
RightHand 38.735397 0.000000 -19.828552
RightHandThumb1 -24.326973 -0.000000 -32.862282
LeftShoulder -20.752208 -20.486205 68.332416
LeftArm 72.602103 -46.888560 -12.413654
LeftForeArm 12.416381 -0.000000 12.824492
LeftHand -17.894747 -0.000000 8.509576
LeftHandThumb1 -26.253704 0.000000 33.147579
Head -51.506251 15.909510 40.279175
734
root -1.493893 13.791770 -3.288131 58.827894 -45.467719 15.123215
RightUpLeg -183.395256 -15.651130 35.935451
RightLeg 102.697091 -0.000000 -0.000000
RightFoot 0.470441 23.044402 22.511610
RightToeBase 27.919104 -0.000000 -0.000000
LeftUpLeg -23.791181 27.204507 19.899930
LeftLeg 17.759349 -0.000000 -0.000000
LeftFoot -36.795853 33.205259 -16.141886
LeftToeBase 12.950432 -0.000000 -0.000000
Spine -30.958302 14.649705 23.461302
RightShoulder -8.635720 28.312687 -26.948600
RightArm 6.315576 -51.063278 59.809716
RightForeArm -4.751392 -0.000000 23.546959
RightHand 39.292883 -0.000000 -21.395120
RightHandThumb1 -24.326973 -0.000000 -32.862282
LeftShoulder -20.716506 -20.609845 68.477330
LeftArm 72.467660 -46.680630 -12.208767
LeftForeArm 12.507986 -0.000000 12.975358
LeftHand -17.907390 -0.000000 8.720142
LeftHandThumb1 -26.253704 0.000000 33.147579
Head -51.434389 16.057376 40.357623
735
root -1.507736 13.775815 -3.303146 58.903780 -45.606298 15.092367
RightUpLeg -183.424579 -15.503988 35.810487
RightLeg 102.742471 -0.000000 -0.000000
RightFoot 0.554504 23.080407 22.829430
RightToeBase 28.194937 -0.000000 -0.000000
LeftUpLeg -23.771510 27.193811 19.871482
LeftLeg 17.786910 -0.000000 -0.000000
LeftFoot -36.689664 33.436535 -16.048602
LeftToeBase 12.995990 -0.000000 -0.000000
Spine -30.965405 14.665137 23.383555
RightShoulder -8.812619 28.532145 -26.749774
RightArm 6.028309 -50.342984 60.193673
RightForeArm -5.589753 0.000000 23.338890
RightHand 39.964521 0.000000 -22.278179
RightHandThumb1 -24.326973 -0.000000 -32.862282
LeftShoulder -20.657833 -20.747953 68.599065
LeftArm 72.200437 -46.465389 -11.838720
LeftForeArm 12.687393 -0.000000 13.116240
LeftHand -17.959796 -0.000000 8.733234
LeftHandThumb1 -26.253704 0.000000 33.147579
Head -51.343408 16.156299 40.422888
736
root -1.523091 13.765320 -3.314301 59.006522 -45.666160 14.982035
RightUpLeg -183.405960 -15.341933 35.818832
RightLeg 102.795253 -0.000000 -0.000000
RightFoot 0.573566 23.171461 23.104982
RightToeBase 28.491209 -0.000000 -0.000000
LeftUpLeg -23.702574 27.156386 19.958663
LeftLeg 17.784292 -0.000000 -0.000000
LeftFoot -36.551252 33.670311 -15.958348
LeftToeBase 12.979239 -0.000000 -0.000000
Spine -30.948985 14.691416 23.420505
RightShoulder -9.062180 28.767956 -26.588571
RightArm 5.970038 -50.022463 60.413611
RightForeArm -6.086228 -0.000000 23.014174
RightHand 40.460307 -0.000000 -23.290293
RightHandThumb1 -24.326973 -0.000000 -32.862282
LeftShoulder -20.612678 -20.839465 68.705798
LeftArm 72.048203 -46.269601 -11.562701
LeftForeArm 12.800560 0.000000 13.188564
LeftHand -17.952964 -0.000000 8.922191
LeftHandThumb1 -26.253704 0.000000 33.147579
Head -51.223892 16.325888 40.485433
737
root -1.531594 13.759266 -3.321366 59.051127 -45.759275 14.949111
RightUpLeg -183.403782 -15.232017 35.764590
RightLeg 102.821514 -0.000000 -0.000000
RightFoot 0.686570 23.275168 23.545076
RightToeBase 28.725924 -0.000000 -0.000000
LeftUpLeg -23.677621 27.225597 19.917167
LeftLeg 17.770695 -0.000000 -0.000000
LeftFoot -36.478370 33.733777 -15.948399
LeftToeBase 13.112137 -0.000000 -0.000000
Spine -30.939230 14.683241 23.418537
RightShoulder -9.287907 28.998232 -26.442446
RightArm 6.012613 -49.806918 60.528067
RightForeArm -6.537506 -0.000000 22.650134
RightHand 40.995617 0.000000 -24.095592
RightHandThumb1 -24.326973 -0.000000 -32.862282
LeftShoulder -20.554762 -20.917770 68.804089
LeftArm 71.995235 -46.104292 -11.423603
LeftForeArm 13.010412 0.000000 13.209255
LeftHand -18.001413 0.000000 8.929786
LeftHandThumb1 -26.253704 0.000000 33.147579
Head -51.040272 16.448859 40.603952
